# File created by Blade
# Date/Time:  Tue Sep 23 19:18:47 2014
# Frame Rate: 120.000 fps
#------------------------------------------------------
:FULLY-SPECIFIED
:DEGREES
1892
root 2.396625 34.521851 -2.908425 141.105847 -14.284580 -40.563688
Spine -77.099249 -6.354832 25.489664
Head -33.650854 35.067627 29.559636
LeftShoulder -25.639534 27.671550 39.720033
LeftArm 164.955372 -73.839287 -167.716716
LeftForeArm -4.769411 0.000000 88.655422
LeftHand -62.648577 -0.000000 1.669255
LeftHandThumb1 -26.253704 0.000000 33.147579
RightShoulder -49.002606 -39.835036 9.401040
RightArm 65.598075 61.423330 139.684905
RightForeArm 36.813116 -0.000000 68.512262
RightHand 6.968527 -0.000000 -19.719632
RightHandThumb1 -24.326973 -0.000000 -32.862282
LeftUpLeg -131.237401 33.560782 -21.321713
LeftLeg -9.211136 -0.000000 0.000000
LeftFoot 3.984335 -5.834220 -3.381827
LeftToeBase 7.394532 -0.000000 -0.000000
RightUpLeg 0.367746 -0.202915 -32.464903
RightLeg 83.855416 -0.000000 -0.000000
RightFoot 35.717087 7.177342 -1.158769
RightToeBase 42.504826 -0.000000 -0.000000
1893
root 2.406697 34.520780 -2.924208 141.268005 -14.296132 -40.601291
Spine -77.155049 -6.335231 25.570457
Head -33.502215 35.236722 29.509036
LeftShoulder -25.604856 27.626829 39.779707
LeftArm 165.275367 -73.886988 -167.906963
LeftForeArm -4.900167 -0.000000 88.663356
LeftHand -62.621750 -0.000000 1.577771
LeftHandThumb1 -26.253704 0.000000 33.147579
RightShoulder -49.075917 -39.829716 9.729548
RightArm 65.460600 61.222290 139.789359
RightForeArm 36.772547 -0.000000 69.439019
RightHand 7.062427 -0.000000 -19.665537
RightHandThumb1 -24.326973 -0.000000 -32.862282
LeftUpLeg -131.458375 33.451318 -21.533539
LeftLeg -9.271098 -0.000000 0.000000
LeftFoot 4.027634 -5.922351 -3.433569
LeftToeBase 7.441492 -0.000000 -0.000000
RightUpLeg 0.206369 -0.217380 -32.525254
RightLeg 84.365622 -0.000000 -0.000000
RightFoot 35.984865 7.201685 -1.010773
RightToeBase 42.887256 -0.000000 -0.000000
1894
root 2.412926 34.517843 -2.943951 141.308479 -14.307305 -40.619137
Spine -77.124019 -6.373770 25.642777
Head -33.305353 35.387151 29.534825
LeftShoulder -25.623863 27.654581 39.825389
LeftArm 165.159620 -73.814611 -167.712312
LeftForeArm -4.975453 0.000000 88.776460
LeftHand -62.583315 -0.000000 1.438394
LeftHandThumb1 -26.253704 0.000000 33.147579
RightShoulder -49.153508 -39.852292 10.015365
RightArm 65.234512 61.005941 139.869231
RightForeArm 36.583035 -0.000000 70.338895
RightHand 6.980385 -0.000000 -19.603775
RightHandThumb1 -24.326973 -0.000000 -32.862282
LeftUpLeg -131.528435 33.423951 -21.596679
LeftLeg -9.305930 -0.000000 0.000000
LeftFoot 4.020096 -5.921780 -3.350880
LeftToeBase 7.516332 -0.000000 -0.000000
RightUpLeg 0.180622 -0.211361 -32.573351
RightLeg 84.871798 -0.000000 -0.000000
RightFoot 36.153598 7.131869 -0.942915
RightToeBase 43.149777 -0.000000 -0.000000
1895
root 2.419856 34.514513 -2.965398 141.332806 -14.316107 -40.609853
Spine -77.085123 -6.425827 25.720338
Head -33.123559 35.524162 29.585475
LeftShoulder -25.631797 27.677337 39.890701
LeftArm 165.070959 -73.786390 -167.568302
LeftForeArm -5.266949 -0.000000 88.949726
LeftHand -62.576527 0.000000 1.318665
LeftHandThumb1 -26.253704 0.000000 33.147579
RightShoulder -49.223897 -39.868590 10.249911
RightArm 64.958016 60.790188 139.935470
RightForeArm 36.715143 0.000000 71.207458
RightHand 7.207306 -0.000000 -19.518949
RightHandThumb1 -24.326973 -0.000000 -32.862282
LeftUpLeg -131.585416 33.414276 -21.586185
LeftLeg -9.295666 -0.000000 0.000000
LeftFoot 4.026220 -5.852412 -3.317282
LeftToeBase 7.526897 -0.000000 -0.000000
RightUpLeg 0.171995 -0.211835 -32.615300
RightLeg 85.371955 -0.000000 -0.000000
RightFoot 36.365804 7.078293 -0.781762
RightToeBase 43.528844 -0.000000 -0.000000
1896
root 2.426291 34.511485 -2.988523 141.353046 -14.324782 -40.618174
Spine -77.035323 -6.479641 25.821440
Head -32.973828 35.699336 29.620960
LeftShoulder -25.638690 27.714077 39.959994
LeftArm 165.048692 -73.757167 -167.515573
LeftForeArm -5.343818 -0.000000 89.148587
LeftHand -62.595539 -0.000000 1.018002
LeftHandThumb1 -26.253704 0.000000 33.147579
RightShoulder -49.290974 -39.934915 10.490587
RightArm 64.759539 60.544991 140.074277
RightForeArm 36.617829 0.000000 72.039112
RightHand 7.148078 0.000000 -19.522949
RightHandThumb1 -24.326973 -0.000000 -32.862282
LeftUpLeg -131.641897 33.440878 -21.555551
LeftLeg -9.243999 -0.000000 0.000000
LeftFoot 4.010354 -5.735243 -3.258074
LeftToeBase 7.473033 -0.000000 -0.000000
RightUpLeg 0.164262 -0.204983 -32.669712
RightLeg 85.890344 -0.000000 -0.000000
RightFoot 36.440957 6.975596 -0.681808
RightToeBase 43.816548 -0.000000 -0.000000
